<svg width="26" height="26" viewBox="0 0 26 26" fill="none" xmlns="http://www.w3.org/2000/svg">
<path d="M11.375 7.52918L10.2158 8.66668L23.9091 22.3708L22.3816 23.9092L8.66663 10.205L7.52913 11.375C6.68413 12.2092 5.30829 12.2092 4.46329 11.375L2.16663 9.05668L2.93579 8.29835L5.23246 10.595L6.00163 9.82585L3.69413 7.52918L4.46329 6.76001L6.75996 9.05668L7.52913 8.29835L5.23246 6.00168L6.00163 5.23252L8.29829 7.52918L9.05663 6.76001L6.75996 4.46335L7.52913 3.69418L9.82579 6.00168L10.595 5.23252L8.29829 2.93585L9.05663 2.16668L11.375 4.46335C12.2091 5.30835 12.2091 6.68418 11.375 7.52918Z" fill="#2BAE6D"/>
</svg>
