<svg width="26" height="26" viewBox="0 0 26 26" fill="none" xmlns="http://www.w3.org/2000/svg">
<path d="M17.0625 19.5H8.93748V21.125H17.0625V19.5ZM15.4375 22.75H10.5625V24.375H15.4375V22.75ZM13 1.625C15.1549 1.625 17.2215 2.48102 18.7452 4.00476C20.269 5.52849 21.125 7.59512 21.125 9.75C21.1799 10.9308 20.9537 12.1078 20.465 13.1842C19.9763 14.2605 19.239 15.2055 18.3137 15.9413C17.5012 16.6969 17.0625 17.1275 17.0625 17.875H15.4375C15.4375 16.38 16.3394 15.5431 17.2169 14.7387C17.9763 14.1572 18.5815 13.3984 18.9795 12.5286C19.3776 11.6589 19.5563 10.7048 19.5 9.75C19.5 8.02609 18.8152 6.37279 17.5962 5.15381C16.3772 3.93482 14.7239 3.25 13 3.25C11.2761 3.25 9.62278 3.93482 8.40379 5.15381C7.1848 6.37279 6.49998 8.02609 6.49998 9.75C6.44465 10.7055 6.62461 11.66 7.02409 12.5298C7.42356 13.3996 8.03035 14.1581 8.79123 14.7387C9.66061 15.5512 10.5625 16.3638 10.5625 17.875H8.93748C8.93748 17.1275 8.50686 16.6969 7.68623 15.9331C6.76166 15.1986 6.02469 14.2551 5.53595 13.1801C5.04722 12.1052 4.82068 10.9296 4.87498 9.75C4.87498 8.68301 5.08514 7.62647 5.49346 6.6407C5.90178 5.65493 6.50027 4.75923 7.25474 4.00476C8.00922 3.25028 8.90491 2.6518 9.89068 2.24348C10.8765 1.83516 11.933 1.625 13 1.625Z" fill="#2BAE6D"/>
</svg>
