<svg width="35" height="42" viewBox="0 0 35 42" fill="none" xmlns="http://www.w3.org/2000/svg">
<path d="M31.75 13.125V39.375C31.75 40.8187 30.5688 42 29.125 42H5.5C4.05625 42 2.875 40.8187 2.875 39.375V13.125H31.75ZM23.875 36.75H26.5V18.375H23.875V36.75ZM18.625 36.75H21.25V18.375H18.625V36.75ZM13.375 36.75H16V18.375H13.375V36.75ZM8.125 36.75H10.75V18.375H8.125V36.75ZM2.21875 5.25H10.75V1.96875C10.7521 1.44724 10.9602 0.947688 11.3289 0.578924C11.6977 0.210161 12.1972 0.00207361 12.7188 0L21.9062 0C22.4278 0.00207361 22.9273 0.210161 23.2961 0.578924C23.6648 0.947688 23.8729 1.44724 23.875 1.96875V5.25H32.4062C32.928 5.25139 33.4279 5.45925 33.7968 5.82816C34.1657 6.19708 34.3736 6.69703 34.375 7.21875V10.5H0.25V7.21875C0.251385 6.69703 0.459251 6.19708 0.828163 5.82816C1.19707 5.45925 1.69703 5.25139 2.21875 5.25ZM13.375 5.25H21.25V2.65913H13.375V5.25Z" fill="#333333"/>
</svg>
