<svg width="24" height="24" viewBox="0 0 32 32" fill="none" xmlns="http://www.w3.org/2000/svg">
<path d="M3.89337 9.33338C4.12376 8.93421 4.45367 8.60156 4.85092 8.36788C5.24818 8.1342 5.69921 8.00747 6.16004 8.00005H23.2267L24 4.98672C24.0782 4.69583 24.2525 4.43997 24.4946 4.26081C24.7367 4.08165 25.0324 3.98974 25.3334 4.00005H28C28.3537 4.00005 28.6928 4.14053 28.9428 4.39057C29.1929 4.64062 29.3334 4.97976 29.3334 5.33338C29.3334 5.687 29.1929 6.02614 28.9428 6.27619C28.6928 6.52624 28.3537 6.66672 28 6.66672H26.3467L22.6667 20.3467C22.5886 20.6376 22.4143 20.8935 22.1721 21.0726C21.93 21.2518 21.6344 21.3437 21.3334 21.3334H9.33337C9.08715 21.3326 8.84594 21.2637 8.63649 21.1343C8.42703 21.0048 8.25751 20.8199 8.14671 20.6L3.77337 11.8534C3.58382 11.4561 3.49558 11.018 3.51651 10.5783C3.53745 10.1386 3.66692 9.71089 3.89337 9.33338Z" fill="#333333"/>
<path d="M22 28C20.8954 28 20 27.1046 20 26C20 24.8954 20.8954 24 22 24C23.1046 24 24 24.8954 24 26C24 27.1046 23.1046 28 22 28Z" fill="#333333"/>
<path d="M8.66669 28C7.56212 28 6.66669 27.1046 6.66669 26C6.66669 24.8954 7.56212 24 8.66669 24C9.77126 24 10.6667 24.8954 10.6667 26C10.6667 27.1046 9.77126 28 8.66669 28Z" fill="#333333"/>
</svg>
