<svg width="26" height="26" viewBox="0 0 26 26" fill="none" xmlns="http://www.w3.org/2000/svg">
<path d="M2.29665 2.3291L3.59665 2.76243C5.82462 3.53653 8.20378 3.77407 10.5408 3.45577C12.9966 3.07466 15.5102 3.41332 17.7775 4.43077C18.9795 4.94259 20.0343 5.74693 20.8461 6.77056C21.6578 7.7942 22.2006 9.00461 22.425 10.2916C22.6533 11.5293 22.6299 12.8002 22.3563 14.0287C22.0827 15.2571 21.5645 16.4178 20.8325 17.4416C20.8975 17.6691 20.9625 17.8966 21.0167 18.1241C21.4567 19.9951 21.6748 21.9113 21.6667 23.8333H19.5C19.3982 22.2601 19.1846 20.6961 18.8608 19.1533C17.3578 19.9649 15.6722 20.3788 13.9642 20.3558C12.3711 20.3547 10.7945 20.0342 9.32748 19.4133C1.08332 15.8924 2.16665 4.1816 2.16665 3.6941L2.29665 2.3291ZM10.1725 17.4199C13 18.6224 16.38 18.4166 18.2758 16.9324C17.9554 15.8611 17.5157 14.829 16.965 13.8558C16.5369 13.1553 16.0318 12.5049 15.4592 11.9166C14.874 11.3221 14.215 10.8051 13.4983 10.3783C12.0173 9.4927 10.3748 8.91084 8.66665 8.6666V7.58327C10.6321 7.51523 12.5854 7.9163 14.365 8.75327C16.1845 9.64111 17.7276 11.0082 18.8283 12.7074C19.2366 13.3564 19.5986 14.0334 19.9117 14.7333C20.4138 13.4488 20.5561 12.0518 20.3233 10.6924C20.1708 9.74076 19.7785 8.84359 19.1834 8.08547C18.5883 7.32734 17.8099 6.73322 16.9217 6.3591C15.6264 5.75369 14.2131 5.4429 12.7833 5.4491C12.1117 5.4491 11.4508 5.5141 10.7575 5.56827C8.58613 5.84842 6.38153 5.71982 4.25749 5.1891C4.33332 8.1791 4.87498 15.1666 10.1725 17.4199Z" fill="#2BAE6D"/>
</svg>
