<svg width="24" height="24" viewBox="0 0 32 32" fill="none" xmlns="http://www.w3.org/2000/svg">
<path fill-rule="evenodd" clip-rule="evenodd" d="M19.8653 21.7666L27.0387 28.94C27.291 29.1921 27.6331 29.3337 27.9898 29.3336C28.3465 29.3334 28.6885 29.1916 28.9407 28.9393C29.1928 28.687 29.3344 28.3449 29.3342 27.9882C29.3341 27.6315 29.1923 27.2894 28.94 27.0373L21.7667 19.864C23.4276 17.7196 24.2092 15.023 23.9525 12.3228C23.6958 9.62261 22.42 7.12162 20.3848 5.32862C18.3496 3.53562 15.7077 2.5853 12.9967 2.67098C10.2857 2.75666 7.70913 3.87191 5.79119 5.78985C3.87325 7.70779 2.758 10.2843 2.67232 12.9954C2.58664 15.7064 3.53696 18.3482 5.32996 20.3835C7.12296 22.4187 9.62395 23.6944 12.3242 23.9511C15.0244 24.2078 17.7209 23.4262 19.8653 21.7653V21.7666ZM21.3333 13.3333C21.3333 15.455 20.4905 17.4899 18.9902 18.9902C17.4899 20.4905 15.4551 21.3333 13.3333 21.3333C11.2116 21.3333 9.17676 20.4905 7.67646 18.9902C6.17617 17.4899 5.33332 15.455 5.33332 13.3333C5.33332 11.2116 6.17617 9.17675 7.67646 7.67645C9.17676 6.17616 11.2116 5.33331 13.3333 5.33331C15.4551 5.33331 17.4899 6.17616 18.9902 7.67645C20.4905 9.17675 21.3333 11.2116 21.3333 13.3333V13.3333Z" fill="#333333"/>
</svg>
