<svg width="24" height="24" viewBox="0 0 24 25" fill="none" xmlns="http://www.w3.org/2000/svg">
<path d="M20.05 13.5L3.95 13.5C3.42533 13.5 3 13.0747 3 12.55V12.45C3 11.9253 3.42533 11.5 3.95 11.5L20.05 11.5C20.5747 11.5 21 11.9253 21 12.45V12.55C21 13.0747 20.5747 13.5 20.05 13.5Z" fill="#333333"/>
<path d="M20.05 8.5L3.95 8.5C3.42533 8.5 3 8.07467 3 7.55V7.45C3 6.92533 3.42533 6.5 3.95 6.5L20.05 6.5C20.5747 6.5 21 6.92533 21 7.45V7.55C21 8.07467 20.5747 8.5 20.05 8.5Z" fill="#333333"/>
<path d="M20.05 18.5L3.95 18.5C3.42533 18.5 3 18.0747 3 17.55V17.45C3 16.9253 3.42533 16.5 3.95 16.5L20.05 16.5C20.5747 16.5 21 16.9253 21 17.45V17.55C21 18.0747 20.5747 18.5 20.05 18.5Z" fill="#333333"/>
</svg>
